<?xml version="1.0" standalone="no"?>
<!DOCTYPE svg PUBLIC "-//W3C//DTD SVG 20010904//EN"
 "http://www.w3.org/TR/2001/REC-SVG-20010904/DTD/svg10.dtd">
<svg version="1.0" xmlns="http://www.w3.org/2000/svg"
 width="338.000000pt" height="338.000000pt" viewBox="0 0 338.000000 338.000000"
 preserveAspectRatio="xMidYMid meet">
<metadata>
Created by potrace 1.11, written by Peter Selinger 2001-2013
</metadata>
<g transform="translate(0.000000,338.000000) scale(0.100000,-0.100000)"
fill="#000000" stroke="none">
<path d="M842 2958 l-842 -422 0 -841 0 -841 845 -422 845 -423 845 423 845
422 0 841 0 841 -845 422 c-465 232 -846 422 -848 422 -1 0 -381 -190 -845
-422z m575 -405 c1 -91 6 -170 10 -174 5 -5 66 -37 136 -72 l128 -63 127 64
c70 35 130 67 134 71 4 3 8 74 9 158 1 83 5 157 9 164 6 8 84 -27 261 -118
140 -72 271 -140 292 -153 35 -21 36 -24 20 -35 -23 -16 -286 -153 -606 -315
l-246 -125 -445 224 c-245 124 -443 227 -440 230 3 3 141 74 307 158 166 83
302 152 302 152 0 1 1 -74 2 -166z m3 -1435 l0 -448 -302 153 c-166 83 -301
157 -301 162 0 6 75 47 167 93 l166 83 0 122 0 123 -140 70 -140 70 -167 -83
c-92 -46 -168 -83 -169 -83 -4 0 -2 615 3 622 2 4 202 -92 443 -215 l440 -222
0 -447z m1425 670 c-6 -365 -7 -398 -15 -398 -4 0 -78 35 -164 78 l-157 78
-140 -70 -139 -70 0 -113 c0 -132 0 -132 121 -192 95 -48 169 -91 191 -111 16
-15 -4 -27 -282 -169 l-300 -152 0 449 0 448 203 102 c318 159 671 331 679
332 4 0 5 -96 3 -212z"/>
</g>
</svg>
